<svg xmlns="http://www.w3.org/2000/svg" xmlns:xlink="http://www.w3.org/1999/xlink" width="500" zoomAndPan="magnify" viewBox="0 0 375 374.999991" height="500" preserveAspectRatio="xMidYMid meet" version="1.0"><defs><g/></defs><path fill="#000000" d="M 153.597656 58.335938 C 156.851562 58.335938 159.492188 55.695312 159.492188 52.445312 L 159.492188 41.039062 C 159.492188 26.285156 171.507812 14.269531 186.308594 14.269531 C 201.109375 14.269531 213.125 26.285156 213.125 41.039062 L 213.125 52.445312 C 213.125 55.695312 215.765625 58.335938 219.015625 58.335938 C 222.269531 58.335938 224.910156 55.695312 224.910156 52.445312 L 224.910156 42.640625 C 224.910156 22.042969 209.449219 3.945312 188.851562 2.578125 C 166.464844 1.117188 147.707031 18.933594 147.707031 41.039062 L 147.707031 52.445312 C 147.707031 55.695312 150.347656 58.335938 153.597656 58.335938 Z M 153.597656 58.335938 " fill-opacity="1" fill-rule="nonzero"/><path fill="#000000" d="M 277.507812 211.511719 L 264.546875 85.4375 C 263.507812 75.398438 255.074219 67.808594 244.988281 67.808594 L 127.628906 67.808594 C 117.542969 67.808594 109.109375 75.445312 108.070312 85.4375 L 104.820312 116.824219 C 102.652344 137.894531 122.679688 154.339844 142.902344 148.167969 L 153.882812 144.820312 C 166.371094 141.003906 180.324219 147.320312 185.222656 161.175781 C 186.921875 165.984375 186.683594 171.261719 185.175781 176.164062 L 180.324219 192 C 173.628906 213.867188 189.984375 235.972656 212.84375 235.972656 L 255.449219 235.972656 C 268.597656 235.925781 278.875 224.566406 277.507812 211.511719 Z M 277.507812 211.511719 " fill-opacity="1" fill-rule="nonzero"/><path fill="#000000" d="M 158.03125 158.300781 L 94.542969 177.671875 C 85.308594 180.5 84.648438 193.320312 93.554688 197.089844 L 108.683594 203.453125 C 116.695312 206.84375 123.105469 213.207031 126.5 221.269531 L 132.863281 236.398438 C 136.632812 245.304688 149.453125 244.644531 152.28125 235.40625 L 171.652344 171.921875 C 174.242188 163.578125 166.417969 155.753906 158.03125 158.300781 Z M 158.03125 158.300781 " fill-opacity="1" fill-rule="nonzero"/><g fill="#ef8121" fill-opacity="0.4"><g transform="translate(84.41121, 323.450755)"><g><path d="M 3.140625 0 L 3.140625 -71.109375 L 31.625 -71.109375 L 31.625 -57.375 L 17.625 -57.375 L 17.625 -43.546875 L 31.046875 -43.546875 L 31.046875 -30.125 L 17.625 -30.125 L 17.625 -13.828125 L 32.53125 -13.828125 L 32.53125 0 Z M 3.140625 0 "/></g></g></g><g fill="#ef8121" fill-opacity="1"><g transform="translate(84.41121, 323.450755)"><g><path d="M 3.140625 0 L 3.140625 -71.109375 L 31.625 -71.109375 L 31.625 -57.375 L 17.625 -57.375 L 17.625 -43.546875 L 31.046875 -43.546875 L 31.046875 -30.125 L 17.625 -30.125 L 17.625 -13.828125 L 32.53125 -13.828125 L 32.53125 0 Z M 3.140625 0 "/></g></g></g><g fill="#1c486f" fill-opacity="1"><g transform="translate(124.379557, 323.450755)"><g><path d="M 20.03125 0.65625 C 13.570312 0.65625 8.90625 -0.941406 6.03125 -4.140625 C 3.164062 -7.335938 1.734375 -12.5 1.734375 -19.625 L 1.734375 -26.578125 L 15.734375 -26.578125 L 15.734375 -17.71875 C 15.734375 -14.1875 16.863281 -12.421875 19.125 -12.421875 C 20.394531 -12.421875 21.273438 -12.789062 21.765625 -13.53125 C 22.265625 -14.28125 22.515625 -15.535156 22.515625 -17.296875 C 22.515625 -19.617188 22.238281 -21.535156 21.6875 -23.046875 C 21.132812 -24.566406 20.429688 -25.835938 19.578125 -26.859375 C 18.722656 -27.878906 17.191406 -29.46875 14.984375 -31.625 L 8.859375 -37.75 C 4.109375 -42.382812 1.734375 -47.515625 1.734375 -53.140625 C 1.734375 -59.210938 3.125 -63.832031 5.90625 -67 C 8.695312 -70.175781 12.769531 -71.765625 18.125 -71.765625 C 24.53125 -71.765625 29.140625 -70.066406 31.953125 -66.671875 C 34.765625 -63.285156 36.171875 -57.976562 36.171875 -50.75 L 21.6875 -50.75 L 21.609375 -55.625 C 21.609375 -56.5625 21.34375 -57.304688 20.8125 -57.859375 C 20.289062 -58.410156 19.5625 -58.6875 18.625 -58.6875 C 17.519531 -58.6875 16.691406 -58.382812 16.140625 -57.78125 C 15.585938 -57.175781 15.3125 -56.347656 15.3125 -55.296875 C 15.3125 -52.984375 16.632812 -50.582031 19.28125 -48.09375 L 27.5625 -40.15625 C 29.5 -38.269531 31.097656 -36.484375 32.359375 -34.796875 C 33.628906 -33.117188 34.648438 -31.132812 35.421875 -28.84375 C 36.203125 -26.550781 36.59375 -23.835938 36.59375 -20.703125 C 36.59375 -13.691406 35.304688 -8.378906 32.734375 -4.765625 C 30.171875 -1.148438 25.9375 0.65625 20.03125 0.65625 Z M 20.03125 0.65625 "/></g></g></g><g fill="#1c486f" fill-opacity="1"><g transform="translate(162.53682, 323.450755)"><g><path d="M 2.890625 -71.515625 L 17.796875 -71.515625 L 17.796875 -54.640625 C 19.335938 -59.054688 22.289062 -61.265625 26.65625 -61.265625 C 30.738281 -61.265625 33.828125 -59.96875 35.921875 -57.375 C 38.023438 -54.78125 39.078125 -51.21875 39.078125 -46.6875 L 39.078125 0 L 24.59375 0 L 24.59375 -45.78125 C 24.59375 -47.101562 24.285156 -48.175781 23.671875 -49 C 23.066406 -49.832031 22.1875 -50.25 21.03125 -50.25 C 20.03125 -50.25 19.238281 -49.820312 18.65625 -48.96875 C 18.082031 -48.113281 17.796875 -47.078125 17.796875 -45.859375 L 17.796875 0 L 2.890625 0 Z M 2.890625 -71.515625 "/></g></g></g><g fill="#1c486f" fill-opacity="1"><g transform="translate(204.335984, 323.450755)"><g><path d="M 20.53125 0.65625 C 8.445312 0.65625 2.40625 -5.601562 2.40625 -18.125 L 2.40625 -42.46875 C 2.40625 -48.207031 4.019531 -52.773438 7.25 -56.171875 C 10.476562 -59.566406 14.90625 -61.265625 20.53125 -61.265625 C 26.15625 -61.265625 30.582031 -59.566406 33.8125 -56.171875 C 37.039062 -52.773438 38.65625 -48.207031 38.65625 -42.46875 L 38.65625 -18.125 C 38.65625 -5.601562 32.613281 0.65625 20.53125 0.65625 Z M 20.53125 -10.515625 C 21.6875 -10.515625 22.539062 -10.925781 23.09375 -11.75 C 23.644531 -12.582031 23.921875 -13.71875 23.921875 -15.15625 L 23.921875 -44.78125 C 23.921875 -48.3125 22.789062 -50.078125 20.53125 -50.078125 C 18.269531 -50.078125 17.140625 -48.3125 17.140625 -44.78125 L 17.140625 -15.15625 C 17.140625 -13.71875 17.414062 -12.582031 17.96875 -11.75 C 18.519531 -10.925781 19.375 -10.515625 20.53125 -10.515625 Z M 20.53125 -10.515625 "/></g></g></g><g fill="#1c486f" fill-opacity="1"><g transform="translate(245.472993, 323.450755)"><g><path d="M 2.890625 -60.59375 L 17.625 -60.59375 L 17.625 -57.375 C 19.726562 -59.96875 22.628906 -61.265625 26.328125 -61.265625 C 31.015625 -61.265625 34.28125 -59.691406 36.125 -56.546875 C 37.976562 -53.398438 38.90625 -49.035156 38.90625 -43.453125 L 38.90625 -21.03125 C 38.90625 -16.28125 38.628906 -12.398438 38.078125 -9.390625 C 37.523438 -6.390625 36.3125 -3.960938 34.4375 -2.109375 C 32.5625 -0.265625 29.71875 0.65625 25.90625 0.65625 C 22.269531 0.65625 19.507812 -0.363281 17.625 -2.40625 L 17.625 12.09375 L 2.890625 12.09375 Z M 21.109375 -10.59375 C 22.429688 -10.59375 23.285156 -11.195312 23.671875 -12.40625 C 24.054688 -13.625 24.25 -15.394531 24.25 -17.71875 L 24.25 -43.453125 C 24.25 -45.554688 24.054688 -47.160156 23.671875 -48.265625 C 23.285156 -49.367188 22.40625 -49.921875 21.03125 -49.921875 C 18.757812 -49.921875 17.625 -47.820312 17.625 -43.625 L 17.625 -17.046875 C 17.625 -15.003906 17.859375 -13.414062 18.328125 -12.28125 C 18.804688 -11.15625 19.734375 -10.59375 21.109375 -10.59375 Z M 21.109375 -10.59375 "/></g></g></g><g fill="#424141" fill-opacity="1"><g transform="translate(82.979164, 358.878354)"><g><path d="M 0.359375 0 L 6.359375 -14.59375 L 8.0625 -14.59375 L 14.0625 0 L 12.125 0 L 10.75 -3.3125 L 3.640625 -3.3125 L 2.3125 0 Z M 4.359375 -5.015625 L 10.0625 -5.015625 L 7.21875 -12.03125 Z M 4.359375 -5.015625 "/></g></g></g><g fill="#424141" fill-opacity="1"><g transform="translate(97.398124, 358.878354)"><g><path d="M 2.125 0 L 2.125 -14.59375 L 7.171875 -14.59375 C 8.671875 -14.59375 9.976562 -14.28125 11.09375 -13.65625 C 12.21875 -13.039062 13.09375 -12.1875 13.71875 -11.09375 C 14.34375 -10.007812 14.65625 -8.742188 14.65625 -7.296875 C 14.65625 -5.859375 14.34375 -4.59375 13.71875 -3.5 C 13.09375 -2.40625 12.21875 -1.546875 11.09375 -0.921875 C 9.976562 -0.304688 8.671875 0 7.171875 0 Z M 3.953125 -1.75 L 7.171875 -1.75 C 8.285156 -1.75 9.257812 -1.976562 10.09375 -2.4375 C 10.9375 -2.90625 11.59375 -3.554688 12.0625 -4.390625 C 12.539062 -5.234375 12.78125 -6.203125 12.78125 -7.296875 C 12.78125 -8.410156 12.539062 -9.378906 12.0625 -10.203125 C 11.582031 -11.023438 10.914062 -11.671875 10.0625 -12.140625 C 9.21875 -12.609375 8.226562 -12.84375 7.09375 -12.84375 L 3.953125 -12.84375 Z M 3.953125 -1.75 "/></g></g></g><g fill="#424141" fill-opacity="1"><g transform="translate(113.254807, 358.878354)"><g><path d="M 2.125 0 L 2.125 -14.59375 L 3.828125 -14.59375 L 9.5625 -5.9375 L 15.25 -14.59375 L 16.96875 -14.59375 L 16.96875 0 L 15.125 0 L 15.125 -11.15625 L 10.296875 -3.875 L 8.796875 -3.875 L 3.953125 -11.171875 L 3.953125 0 Z M 2.125 0 "/></g></g></g><g fill="#424141" fill-opacity="1"><g transform="translate(132.341176, 358.878354)"><g><path d="M 2.125 0 L 2.125 -14.59375 L 3.953125 -14.59375 L 3.953125 0 Z M 2.125 0 "/></g></g></g><g fill="#424141" fill-opacity="1"><g transform="translate(138.425484, 358.878354)"><g><path d="M 2.125 0 L 2.125 -14.59375 L 3.859375 -14.59375 L 11.921875 -3.171875 L 11.921875 -14.59375 L 13.71875 -14.59375 L 13.71875 0 L 12 0 L 3.9375 -11.421875 L 3.9375 0 Z M 2.125 0 "/></g></g></g><g fill="#424141" fill-opacity="1"><g transform="translate(154.261342, 358.878354)"><g/></g></g><g fill="#424141" fill-opacity="1"><g transform="translate(159.428836, 358.878354)"><g><path d="M 2.125 0 L 2.125 -14.59375 L 7.171875 -14.59375 C 8.671875 -14.59375 9.976562 -14.28125 11.09375 -13.65625 C 12.21875 -13.039062 13.09375 -12.1875 13.71875 -11.09375 C 14.34375 -10.007812 14.65625 -8.742188 14.65625 -7.296875 C 14.65625 -5.859375 14.34375 -4.59375 13.71875 -3.5 C 13.09375 -2.40625 12.21875 -1.546875 11.09375 -0.921875 C 9.976562 -0.304688 8.671875 0 7.171875 0 Z M 3.953125 -1.75 L 7.171875 -1.75 C 8.285156 -1.75 9.257812 -1.976562 10.09375 -2.4375 C 10.9375 -2.90625 11.59375 -3.554688 12.0625 -4.390625 C 12.539062 -5.234375 12.78125 -6.203125 12.78125 -7.296875 C 12.78125 -8.410156 12.539062 -9.378906 12.0625 -10.203125 C 11.582031 -11.023438 10.914062 -11.671875 10.0625 -12.140625 C 9.21875 -12.609375 8.226562 -12.84375 7.09375 -12.84375 L 3.953125 -12.84375 Z M 3.953125 -1.75 "/></g></g></g><g fill="#424141" fill-opacity="1"><g transform="translate(175.285519, 358.878354)"><g><path d="M 0.359375 0 L 6.359375 -14.59375 L 8.0625 -14.59375 L 14.0625 0 L 12.125 0 L 10.75 -3.3125 L 3.640625 -3.3125 L 2.3125 0 Z M 4.359375 -5.015625 L 10.0625 -5.015625 L 7.21875 -12.03125 Z M 4.359375 -5.015625 "/></g></g></g><g fill="#424141" fill-opacity="1"><g transform="translate(189.704479, 358.878354)"><g><path d="M 6.984375 0.265625 C 5.816406 0.265625 4.804688 0.0664062 3.953125 -0.328125 C 3.097656 -0.722656 2.4375 -1.273438 1.96875 -1.984375 C 1.5 -2.703125 1.257812 -3.535156 1.25 -4.484375 L 3.078125 -4.484375 C 3.109375 -3.546875 3.484375 -2.8125 4.203125 -2.28125 C 4.921875 -1.75 5.847656 -1.484375 6.984375 -1.484375 C 8.015625 -1.484375 8.832031 -1.679688 9.4375 -2.078125 C 10.039062 -2.484375 10.34375 -3.046875 10.34375 -3.765625 C 10.34375 -4.453125 10.050781 -5 9.46875 -5.40625 C 8.882812 -5.820312 7.929688 -6.179688 6.609375 -6.484375 C 4.816406 -6.910156 3.503906 -7.460938 2.671875 -8.140625 C 1.835938 -8.816406 1.421875 -9.71875 1.421875 -10.84375 C 1.421875 -12.070312 1.890625 -13.046875 2.828125 -13.765625 C 3.765625 -14.492188 5.03125 -14.859375 6.625 -14.859375 C 8.269531 -14.859375 9.566406 -14.445312 10.515625 -13.625 C 11.460938 -12.8125 11.945312 -11.695312 11.96875 -10.28125 L 10.15625 -10.28125 C 10.132812 -11.15625 9.804688 -11.84375 9.171875 -12.34375 C 8.546875 -12.851562 7.695312 -13.109375 6.625 -13.109375 C 5.582031 -13.109375 4.765625 -12.898438 4.171875 -12.484375 C 3.585938 -12.078125 3.296875 -11.53125 3.296875 -10.84375 C 3.296875 -10.238281 3.566406 -9.734375 4.109375 -9.328125 C 4.660156 -8.921875 5.644531 -8.539062 7.0625 -8.1875 C 8.925781 -7.726562 10.253906 -7.15625 11.046875 -6.46875 C 11.835938 -5.78125 12.234375 -4.898438 12.234375 -3.828125 C 12.234375 -2.566406 11.753906 -1.566406 10.796875 -0.828125 C 9.847656 -0.0976562 8.578125 0.265625 6.984375 0.265625 Z M 6.984375 0.265625 "/></g></g></g><g fill="#424141" fill-opacity="1"><g transform="translate(203.185798, 358.878354)"><g><path d="M 11.6875 0 L 11.6875 -6.5625 L 3.953125 -6.5625 L 3.953125 0 L 2.125 0 L 2.125 -14.59375 L 3.953125 -14.59375 L 3.953125 -8.3125 L 11.6875 -8.3125 L 11.6875 -14.59375 L 13.53125 -14.59375 L 13.53125 0 Z M 11.6875 0 "/></g></g></g><g fill="#424141" fill-opacity="1"><g transform="translate(218.834124, 358.878354)"><g><path d="M 2.125 0 L 2.125 -14.59375 L 7.78125 -14.59375 C 9.175781 -14.59375 10.296875 -14.238281 11.140625 -13.53125 C 11.984375 -12.832031 12.40625 -11.894531 12.40625 -10.71875 C 12.40625 -10.007812 12.238281 -9.382812 11.90625 -8.84375 C 11.570312 -8.300781 11.101562 -7.875 10.5 -7.5625 C 11.25 -7.257812 11.820312 -6.804688 12.21875 -6.203125 C 12.613281 -5.609375 12.8125 -4.898438 12.8125 -4.078125 C 12.8125 -2.816406 12.382812 -1.820312 11.53125 -1.09375 C 10.675781 -0.363281 9.515625 0 8.046875 0 Z M 3.953125 -1.703125 L 8 -1.703125 C 8.945312 -1.703125 9.671875 -1.914062 10.171875 -2.34375 C 10.679688 -2.78125 10.9375 -3.390625 10.9375 -4.171875 C 10.9375 -4.953125 10.679688 -5.550781 10.171875 -5.96875 C 9.660156 -6.394531 8.929688 -6.609375 7.984375 -6.609375 L 3.953125 -6.609375 Z M 3.953125 -8.28125 L 7.734375 -8.28125 C 8.640625 -8.28125 9.332031 -8.476562 9.8125 -8.875 C 10.289062 -9.28125 10.53125 -9.84375 10.53125 -10.5625 C 10.53125 -11.300781 10.285156 -11.867188 9.796875 -12.265625 C 9.304688 -12.671875 8.617188 -12.875 7.734375 -12.875 L 3.953125 -12.875 Z M 3.953125 -8.28125 "/></g></g></g><g fill="#424141" fill-opacity="1"><g transform="translate(232.81551, 358.878354)"><g><path d="M 8.75 0.265625 C 7.28125 0.265625 5.972656 -0.0546875 4.828125 -0.703125 C 3.691406 -1.347656 2.800781 -2.238281 2.15625 -3.375 C 1.519531 -4.507812 1.203125 -5.816406 1.203125 -7.296875 C 1.203125 -8.785156 1.519531 -10.09375 2.15625 -11.21875 C 2.800781 -12.351562 3.691406 -13.242188 4.828125 -13.890625 C 5.972656 -14.535156 7.28125 -14.859375 8.75 -14.859375 C 10.238281 -14.859375 11.546875 -14.535156 12.671875 -13.890625 C 13.804688 -13.242188 14.695312 -12.351562 15.34375 -11.21875 C 16 -10.09375 16.328125 -8.785156 16.328125 -7.296875 C 16.328125 -5.816406 16 -4.507812 15.34375 -3.375 C 14.695312 -2.238281 13.804688 -1.347656 12.671875 -0.703125 C 11.546875 -0.0546875 10.238281 0.265625 8.75 0.265625 Z M 3.078125 -7.296875 C 3.078125 -6.171875 3.316406 -5.175781 3.796875 -4.3125 C 4.273438 -3.445312 4.941406 -2.769531 5.796875 -2.28125 C 6.660156 -1.800781 7.644531 -1.5625 8.75 -1.5625 C 9.875 -1.5625 10.859375 -1.800781 11.703125 -2.28125 C 12.554688 -2.769531 13.222656 -3.445312 13.703125 -4.3125 C 14.179688 -5.175781 14.421875 -6.171875 14.421875 -7.296875 C 14.421875 -8.429688 14.179688 -9.425781 13.703125 -10.28125 C 13.222656 -11.132812 12.554688 -11.804688 11.703125 -12.296875 C 10.859375 -12.785156 9.875 -13.03125 8.75 -13.03125 C 7.644531 -13.03125 6.660156 -12.785156 5.796875 -12.296875 C 4.941406 -11.804688 4.273438 -11.132812 3.796875 -10.28125 C 3.316406 -9.425781 3.078125 -8.429688 3.078125 -7.296875 Z M 3.078125 -7.296875 "/></g></g></g><g fill="#424141" fill-opacity="1"><g transform="translate(250.318292, 358.878354)"><g><path d="M 0.359375 0 L 6.359375 -14.59375 L 8.0625 -14.59375 L 14.0625 0 L 12.125 0 L 10.75 -3.3125 L 3.640625 -3.3125 L 2.3125 0 Z M 4.359375 -5.015625 L 10.0625 -5.015625 L 7.21875 -12.03125 Z M 4.359375 -5.015625 "/></g></g></g><g fill="#424141" fill-opacity="1"><g transform="translate(264.737251, 358.878354)"><g><path d="M 2.125 0 L 2.125 -14.59375 L 7.6875 -14.59375 C 8.707031 -14.59375 9.59375 -14.398438 10.34375 -14.015625 C 11.09375 -13.628906 11.675781 -13.085938 12.09375 -12.390625 C 12.507812 -11.703125 12.71875 -10.875 12.71875 -9.90625 C 12.71875 -8.71875 12.410156 -7.738281 11.796875 -6.96875 C 11.179688 -6.195312 10.34375 -5.679688 9.28125 -5.421875 L 12.9375 0 L 10.734375 0 L 7.171875 -5.234375 L 3.953125 -5.234375 L 3.953125 0 Z M 3.953125 -6.984375 L 7.484375 -6.984375 C 8.554688 -6.984375 9.382812 -7.234375 9.96875 -7.734375 C 10.550781 -8.242188 10.84375 -8.96875 10.84375 -9.90625 C 10.84375 -10.832031 10.550781 -11.550781 9.96875 -12.0625 C 9.382812 -12.582031 8.554688 -12.84375 7.484375 -12.84375 L 3.953125 -12.84375 Z M 3.953125 -6.984375 "/></g></g></g><g fill="#424141" fill-opacity="1"><g transform="translate(278.927011, 358.878354)"><g><path d="M 2.125 0 L 2.125 -14.59375 L 7.171875 -14.59375 C 8.671875 -14.59375 9.976562 -14.28125 11.09375 -13.65625 C 12.21875 -13.039062 13.09375 -12.1875 13.71875 -11.09375 C 14.34375 -10.007812 14.65625 -8.742188 14.65625 -7.296875 C 14.65625 -5.859375 14.34375 -4.59375 13.71875 -3.5 C 13.09375 -2.40625 12.21875 -1.546875 11.09375 -0.921875 C 9.976562 -0.304688 8.671875 0 7.171875 0 Z M 3.953125 -1.75 L 7.171875 -1.75 C 8.285156 -1.75 9.257812 -1.976562 10.09375 -2.4375 C 10.9375 -2.90625 11.59375 -3.554688 12.0625 -4.390625 C 12.539062 -5.234375 12.78125 -6.203125 12.78125 -7.296875 C 12.78125 -8.410156 12.539062 -9.378906 12.0625 -10.203125 C 11.582031 -11.023438 10.914062 -11.671875 10.0625 -12.140625 C 9.21875 -12.609375 8.226562 -12.84375 7.09375 -12.84375 L 3.953125 -12.84375 Z M 3.953125 -1.75 "/></g></g></g></svg>