<svg xmlns="http://www.w3.org/2000/svg" xmlns:xlink="http://www.w3.org/1999/xlink" width="500" zoomAndPan="magnify" viewBox="0 0 375 374.999991" height="500" preserveAspectRatio="xMidYMid meet" version="1.0"><defs><g/></defs><path fill="#fafafa" d="M 149.382812 62.976562 C 152.894531 62.976562 155.746094 60.128906 155.746094 56.617188 L 155.746094 44.304688 C 155.746094 28.378906 168.71875 15.402344 184.699219 15.402344 C 200.675781 15.402344 213.648438 28.378906 213.648438 44.304688 L 213.648438 56.617188 C 213.648438 60.128906 216.5 62.976562 220.011719 62.976562 C 223.519531 62.976562 226.371094 60.128906 226.371094 56.617188 L 226.371094 46.035156 C 226.371094 23.796875 209.679688 4.257812 187.445312 2.785156 C 163.277344 1.207031 143.023438 20.441406 143.023438 44.304688 L 143.023438 56.617188 C 143.023438 60.128906 145.875 62.976562 149.382812 62.976562 Z M 149.382812 62.976562 " fill-opacity="1" fill-rule="nonzero"/><path fill="#fafafa" d="M 283.15625 228.347656 L 269.164062 92.234375 C 268.042969 81.398438 258.933594 73.207031 248.046875 73.207031 L 121.347656 73.207031 C 110.460938 73.207031 101.351562 81.449219 100.230469 92.234375 L 96.722656 126.125 C 94.378906 148.867188 116.003906 166.625 137.835938 159.960938 L 149.691406 156.347656 C 163.175781 152.226562 178.234375 159.042969 183.527344 174.003906 C 185.359375 179.195312 185.105469 184.894531 183.476562 190.183594 L 178.234375 207.28125 C 171.011719 230.890625 188.667969 254.753906 213.34375 254.753906 L 259.34375 254.753906 C 273.539062 254.703125 284.632812 242.441406 283.15625 228.347656 Z M 283.15625 228.347656 " fill-opacity="1" fill-rule="nonzero"/><path fill="#fafafa" d="M 154.167969 170.898438 L 85.628906 191.8125 C 75.65625 194.867188 74.941406 208.707031 84.558594 212.777344 L 100.894531 219.644531 C 109.542969 223.308594 116.464844 230.179688 120.128906 238.878906 L 126.996094 255.210938 C 131.066406 264.828125 144.90625 264.117188 147.960938 254.144531 L 168.871094 185.605469 C 171.671875 176.597656 163.226562 168.152344 154.167969 170.898438 Z M 154.167969 170.898438 " fill-opacity="1" fill-rule="nonzero"/><g fill="#ef8121" fill-opacity="0.4"><g transform="translate(74.68894, 349.192987)"><g><path d="M 3.390625 0 L 3.390625 -76.765625 L 34.140625 -76.765625 L 34.140625 -61.9375 L 19.03125 -61.9375 L 19.03125 -47.015625 L 33.515625 -47.015625 L 33.515625 -32.53125 L 19.03125 -32.53125 L 19.03125 -14.921875 L 35.125 -14.921875 L 35.125 0 Z M 3.390625 0 "/></g></g></g><g fill="#ef8121" fill-opacity="1"><g transform="translate(74.68894, 349.192987)"><g><path d="M 3.390625 0 L 3.390625 -76.765625 L 34.140625 -76.765625 L 34.140625 -61.9375 L 19.03125 -61.9375 L 19.03125 -47.015625 L 33.515625 -47.015625 L 33.515625 -32.53125 L 19.03125 -32.53125 L 19.03125 -14.921875 L 35.125 -14.921875 L 35.125 0 Z M 3.390625 0 "/></g></g></g><g fill="#fafafa" fill-opacity="1"><g transform="translate(117.838233, 349.192987)"><g><path d="M 21.625 0.71875 C 14.65625 0.71875 9.617188 -1.007812 6.515625 -4.46875 C 3.421875 -7.925781 1.875 -13.5 1.875 -21.1875 L 1.875 -28.6875 L 16.984375 -28.6875 L 16.984375 -19.125 C 16.984375 -15.3125 18.203125 -13.40625 20.640625 -13.40625 C 22.015625 -13.40625 22.96875 -13.804688 23.5 -14.609375 C 24.039062 -15.410156 24.3125 -16.765625 24.3125 -18.671875 C 24.3125 -21.179688 24.007812 -23.253906 23.40625 -24.890625 C 22.8125 -26.523438 22.050781 -27.894531 21.125 -29 C 20.207031 -30.101562 18.554688 -31.816406 16.171875 -34.140625 L 9.5625 -40.75 C 4.4375 -45.757812 1.875 -51.300781 1.875 -57.375 C 1.875 -63.925781 3.378906 -68.914062 6.390625 -72.34375 C 9.398438 -75.769531 13.796875 -77.484375 19.578125 -77.484375 C 26.484375 -77.484375 31.457031 -75.648438 34.5 -71.984375 C 37.539062 -68.328125 39.0625 -62.59375 39.0625 -54.78125 L 23.421875 -54.78125 L 23.328125 -60.0625 C 23.328125 -61.070312 23.039062 -61.875 22.46875 -62.46875 C 21.90625 -63.0625 21.117188 -63.359375 20.109375 -63.359375 C 18.921875 -63.359375 18.023438 -63.03125 17.421875 -62.375 C 16.828125 -61.726562 16.53125 -60.835938 16.53125 -59.703125 C 16.53125 -57.203125 17.960938 -54.609375 20.828125 -51.921875 L 29.765625 -43.34375 C 31.847656 -41.320312 33.570312 -39.398438 34.9375 -37.578125 C 36.3125 -35.765625 37.414062 -33.617188 38.25 -31.140625 C 39.082031 -28.671875 39.5 -25.738281 39.5 -22.34375 C 39.5 -14.78125 38.113281 -9.046875 35.34375 -5.140625 C 32.570312 -1.234375 28 0.71875 21.625 0.71875 Z M 21.625 0.71875 "/></g></g></g><g fill="#fafafa" fill-opacity="1"><g transform="translate(159.032292, 349.192987)"><g><path d="M 3.125 -77.21875 L 19.21875 -77.21875 L 19.21875 -58.984375 C 20.882812 -63.753906 24.070312 -66.140625 28.78125 -66.140625 C 33.1875 -66.140625 36.519531 -64.738281 38.78125 -61.9375 C 41.050781 -59.132812 42.1875 -55.289062 42.1875 -50.40625 L 42.1875 0 L 26.546875 0 L 26.546875 -49.421875 C 26.546875 -50.847656 26.21875 -52.007812 25.5625 -52.90625 C 24.90625 -53.800781 23.953125 -54.25 22.703125 -54.25 C 21.628906 -54.25 20.78125 -53.785156 20.15625 -52.859375 C 19.53125 -51.941406 19.21875 -50.828125 19.21875 -49.515625 L 19.21875 0 L 3.125 0 Z M 3.125 -77.21875 "/></g></g></g><g fill="#fafafa" fill-opacity="1"><g transform="translate(204.158097, 349.192987)"><g><path d="M 22.171875 0.71875 C 9.117188 0.71875 2.59375 -6.046875 2.59375 -19.578125 L 2.59375 -45.84375 C 2.59375 -52.039062 4.332031 -56.972656 7.8125 -60.640625 C 11.300781 -64.304688 16.085938 -66.140625 22.171875 -66.140625 C 28.242188 -66.140625 33.019531 -64.304688 36.5 -60.640625 C 39.988281 -56.972656 41.734375 -52.039062 41.734375 -45.84375 L 41.734375 -19.578125 C 41.734375 -6.046875 35.210938 0.71875 22.171875 0.71875 Z M 22.171875 -11.34375 C 23.421875 -11.34375 24.34375 -11.789062 24.9375 -12.6875 C 25.53125 -13.582031 25.828125 -14.804688 25.828125 -16.359375 L 25.828125 -48.359375 C 25.828125 -52.171875 24.609375 -54.078125 22.171875 -54.078125 C 19.722656 -54.078125 18.5 -52.171875 18.5 -48.359375 L 18.5 -16.359375 C 18.5 -14.804688 18.796875 -13.582031 19.390625 -12.6875 C 19.984375 -11.789062 20.910156 -11.34375 22.171875 -11.34375 Z M 22.171875 -11.34375 "/></g></g></g><g fill="#fafafa" fill-opacity="1"><g transform="translate(248.569049, 349.192987)"><g><path d="M 3.125 -65.421875 L 19.03125 -65.421875 L 19.03125 -61.9375 C 21.300781 -64.738281 24.429688 -66.140625 28.421875 -66.140625 C 33.484375 -66.140625 37.007812 -64.441406 39 -61.046875 C 41 -57.648438 42 -52.941406 42 -46.921875 L 42 -22.703125 C 42 -17.578125 41.703125 -13.390625 41.109375 -10.140625 C 40.515625 -6.890625 39.203125 -4.265625 37.171875 -2.265625 C 35.148438 -0.273438 32.082031 0.71875 27.96875 0.71875 C 24.039062 0.71875 21.0625 -0.382812 19.03125 -2.59375 L 19.03125 13.046875 L 3.125 13.046875 Z M 22.796875 -11.4375 C 24.222656 -11.4375 25.144531 -12.09375 25.5625 -13.40625 C 25.976562 -14.71875 26.1875 -16.625 26.1875 -19.125 L 26.1875 -46.921875 C 26.1875 -49.179688 25.976562 -50.90625 25.5625 -52.09375 C 25.144531 -53.289062 24.191406 -53.890625 22.703125 -53.890625 C 20.253906 -53.890625 19.03125 -51.625 19.03125 -47.09375 L 19.03125 -18.40625 C 19.03125 -16.207031 19.285156 -14.492188 19.796875 -13.265625 C 20.304688 -12.046875 21.304688 -11.4375 22.796875 -11.4375 Z M 22.796875 -11.4375 "/></g></g></g></svg>