<svg xmlns="http://www.w3.org/2000/svg" xmlns:xlink="http://www.w3.org/1999/xlink" width="500" zoomAndPan="magnify" viewBox="0 0 375 374.999991" height="500" preserveAspectRatio="xMidYMid meet" version="1.0"><path fill="#000000" d="M 148.019531 95.878906 C 152.621094 95.878906 156.355469 92.144531 156.355469 87.542969 L 156.355469 71.40625 C 156.355469 50.535156 173.359375 33.53125 194.296875 33.53125 C 215.234375 33.53125 232.238281 50.535156 232.238281 71.40625 L 232.238281 87.542969 C 232.238281 92.144531 235.972656 95.878906 240.574219 95.878906 C 245.175781 95.878906 248.90625 92.144531 248.90625 87.542969 L 248.90625 73.671875 C 248.90625 44.535156 227.035156 18.929688 197.898438 16.996094 C 166.222656 14.925781 139.6875 40.132812 139.6875 71.40625 L 139.6875 87.542969 C 139.6875 92.144531 143.421875 95.878906 148.019531 95.878906 Z M 148.019531 95.878906 " fill-opacity="1" fill-rule="nonzero"/><path fill="#000000" d="M 323.324219 312.589844 L 304.984375 134.21875 C 303.519531 120.015625 291.582031 109.28125 277.3125 109.28125 L 111.28125 109.28125 C 97.011719 109.28125 85.074219 120.082031 83.609375 134.21875 L 79.007812 178.628906 C 75.941406 208.433594 104.277344 231.707031 132.882812 222.96875 L 148.421875 218.234375 C 166.089844 212.835938 185.828125 221.769531 192.761719 241.375 C 195.164062 248.175781 194.832031 255.644531 192.695312 262.578125 L 185.828125 284.984375 C 176.359375 315.921875 199.5 347.195312 231.839844 347.195312 L 292.117188 347.195312 C 310.722656 347.128906 325.257812 331.058594 323.324219 312.589844 Z M 323.324219 312.589844 " fill-opacity="1" fill-rule="nonzero"/><path fill="#000000" d="M 154.289062 237.304688 L 64.46875 264.710938 C 51.402344 268.710938 50.46875 286.851562 63.070312 292.183594 L 84.476562 301.1875 C 95.808594 305.988281 104.878906 314.988281 109.679688 326.390625 L 118.679688 347.796875 C 124.015625 360.398438 142.152344 359.464844 146.152344 346.394531 L 173.558594 256.578125 C 177.226562 244.773438 166.15625 233.707031 154.289062 237.304688 Z M 154.289062 237.304688 " fill-opacity="1" fill-rule="nonzero"/></svg>